<?xml version="1.0" encoding="UTF-8" standalone="no"?>
<!DOCTYPE svg PUBLIC "-//W3C//DTD SVG 1.1//EN" "http://www.w3.org/Graphics/SVG/1.1/DTD/svg11.dtd">
<svg version="1.1" xmlns="http://www.w3.org/2000/svg" xmlns:xlink="http://www.w3.org/1999/xlink" preserveAspectRatio="xMidYMid meet" viewBox="0 0 640 640" width="50" height="50"><defs><path d="M4.23 44.35C4.23 42.18 4.23 24.83 4.23 22.66C4.23 20.82 5.25 19.33 6.5 19.33C10.4 19.33 41.56 19.33 45.45 19.33C46.71 19.33 47.73 20.82 47.73 22.66C47.73 24.83 47.73 42.18 47.73 44.35C47.73 46.18 46.71 47.67 45.45 47.67C37.66 47.67 10.4 47.67 6.5 47.67C5.25 47.67 4.23 46.18 4.23 44.35Z" id="bjNWUXEuW"></path><path d="M4.23 44.35C4.23 42.18 4.23 24.83 4.23 22.66C4.23 20.82 5.25 19.33 6.5 19.33C10.4 19.33 41.56 19.33 45.45 19.33C46.71 19.33 47.73 20.82 47.73 22.66C47.73 24.83 47.73 42.18 47.73 44.35C47.73 46.18 46.71 47.67 45.45 47.67C37.66 47.67 10.4 47.67 6.5 47.67C5.25 47.67 4.23 46.18 4.23 44.35Z" id="a2CuUilP5l"></path><path d="M23.99 8.41C23.99 10.02 24.88 11.33 25.98 11.33C27.08 11.33 27.97 10.02 27.97 8.41C27.97 6.8 27.08 5.49 25.98 5.49C24.88 5.49 23.99 6.8 23.99 8.41Z" id="a1eJzfwS2v"></path><path d="M23.99 8.41C23.99 10.02 24.88 11.33 25.98 11.33C27.08 11.33 27.97 10.02 27.97 8.41C27.97 6.8 27.08 5.49 25.98 5.49C24.88 5.49 23.99 6.8 23.99 8.41Z" id="a1fxOZJoct"></path><path d="M28.73 7.9C28.56 5.9 27.39 4.34 25.98 4.34C24.56 4.34 23.39 5.9 23.22 7.9C22.75 8.58 20.41 12.01 16.2 18.18C10.38 18.18 7.15 18.18 6.5 18.18C4.82 18.18 3.45 20.19 3.45 22.66C3.45 24.83 3.45 42.18 3.45 44.35C3.45 46.82 4.82 48.82 6.5 48.82C10.4 48.82 41.56 48.82 45.45 48.82C47.14 48.82 48.51 46.82 48.51 44.35C48.51 42.18 48.51 24.83 48.51 22.66C48.51 20.19 47.14 18.18 45.45 18.18C44.16 18.18 40.93 18.18 35.75 18.18C31.54 12.01 29.2 8.58 28.73 7.9ZM25.98 10.18C25.31 10.18 24.77 9.38 24.77 8.41C24.77 7.43 25.31 6.64 25.98 6.64C26.64 6.64 27.19 7.43 27.19 8.41C27.19 9.38 26.64 10.18 25.98 10.18ZM28.33 10.57C28.68 11.07 30.41 13.61 33.53 18.18C32.53 18.18 27.49 18.18 18.42 18.18C21.54 13.61 23.28 11.07 23.62 10.57C24.53 11.84 25.32 12.48 25.98 12.48C26.97 12.48 27.84 11.71 28.33 10.57ZM6.5 46.52C5.68 46.52 5.02 45.55 5.02 44.35C5.02 42.18 5.02 24.83 5.02 22.66C5.02 21.46 5.68 20.48 6.5 20.48C10.4 20.48 41.56 20.48 45.45 20.48C46.27 20.48 46.94 21.46 46.94 22.66C46.94 24.1 46.94 31.33 46.94 44.35C46.5 45.8 46 46.52 45.45 46.52C41.56 46.52 10.4 46.52 6.5 46.52Z" id="gK2j2bfPm"></path><path d="M30.73 7.9C30.55 5.9 29.38 4.34 27.97 4.34C26.56 4.34 25.39 5.9 25.22 7.9C24.75 8.58 22.41 12.01 18.2 18.18C12.37 18.18 9.14 18.18 8.5 18.18C6.81 18.18 5.44 20.19 5.44 22.66C5.44 24.83 5.44 42.18 5.44 44.35C5.44 46.82 6.81 48.82 8.5 48.82C12.39 48.82 43.55 48.82 47.45 48.82C49.13 48.82 50.5 46.82 50.5 44.35C50.5 42.18 50.5 24.83 50.5 22.66C50.5 20.19 49.13 18.18 47.45 18.18C46.15 18.18 42.92 18.18 37.75 18.18C33.53 12.01 31.19 8.58 30.73 7.9ZM27.97 10.18C27.31 10.18 26.76 9.38 26.76 8.41C26.76 7.43 27.31 6.64 27.97 6.64C28.64 6.64 29.18 7.43 29.18 8.41C29.18 9.38 28.64 10.18 27.97 10.18ZM30.33 10.57C30.67 11.07 32.41 13.61 35.52 18.18C34.52 18.18 29.48 18.18 20.42 18.18C23.54 13.61 25.27 11.07 25.62 10.57C26.53 11.84 27.31 12.48 27.97 12.48C28.96 12.48 29.83 11.71 30.33 10.57ZM8.5 46.52C7.68 46.52 7.01 45.55 7.01 44.35C7.01 42.18 7.01 24.83 7.01 22.66C7.01 21.46 7.68 20.48 8.5 20.48C12.39 20.48 43.55 20.48 47.45 20.48C48.26 20.48 48.93 21.46 48.93 22.66C48.93 24.1 48.93 31.33 48.93 44.35C48.49 45.8 47.99 46.52 47.45 46.52C43.55 46.52 12.39 46.52 8.5 46.52Z" id="e2qnwaY8fs"></path><path d="M13.49 29.93C13.49 30.56 13.84 31.08 14.28 31.08C14.71 31.08 15.06 30.56 15.06 29.93C15.06 28.26 14.14 26.9 13 26.9C12.81 26.9 11.34 26.9 11.15 26.9C10.01 26.9 9.09 28.26 9.09 29.93C9.09 30.64 9.09 36.36 9.09 37.08C9.09 38.75 10.01 40.11 11.15 40.11C11.34 40.11 12.81 40.11 13 40.11C14.14 40.11 15.06 38.75 15.06 37.08C15.06 36.44 14.71 35.93 14.28 35.93C13.84 35.93 13.49 36.44 13.49 37.08C13.49 37.48 13.27 37.81 13 37.81C12.81 37.81 11.34 37.81 11.15 37.81C10.88 37.81 10.66 37.48 10.66 37.08C10.66 36.36 10.66 30.64 10.66 29.92C10.66 29.52 10.88 29.2 11.15 29.2C11.52 29.2 12.81 29.2 13 29.2C13.27 29.2 13.49 29.52 13.49 29.93Z" id="c3bmoDqE7q"></path><path d="M13.49 29.93C13.49 30.56 13.84 31.08 14.28 31.08C14.71 31.08 15.06 30.56 15.06 29.93C15.06 28.26 14.14 26.9 13 26.9C12.81 26.9 11.34 26.9 11.15 26.9C10.01 26.9 9.09 28.26 9.09 29.93C9.09 30.64 9.09 36.36 9.09 37.08C9.09 38.75 10.01 40.11 11.15 40.11C11.34 40.11 12.81 40.11 13 40.11C14.14 40.11 15.06 38.75 15.06 37.08C15.06 36.44 14.71 35.93 14.28 35.93C13.84 35.93 13.49 36.44 13.49 37.08C13.49 37.48 13.27 37.81 13 37.81C12.81 37.81 11.34 37.81 11.15 37.81C10.88 37.81 10.66 37.48 10.66 37.08C10.66 36.36 10.66 30.64 10.66 29.92C10.66 29.52 10.88 29.2 11.15 29.2C11.52 29.2 12.81 29.2 13 29.2C13.27 29.2 13.49 29.52 13.49 29.93Z" id="avPKGwMX6"></path><path d="M22.99 30.72C22.99 31.27 22.99 35.73 22.99 36.29C22.99 38.39 24.16 40.11 25.6 40.11C25.67 40.11 26.28 40.11 26.36 40.11C27.8 40.11 28.97 38.39 28.97 36.29C28.97 35.73 28.97 31.27 28.97 30.72C28.97 28.61 27.8 26.9 26.36 26.9C26.21 26.9 25.67 26.9 25.6 26.9C24.16 26.9 22.99 28.61 22.99 30.72ZM25.6 37.81C25.03 37.81 24.56 37.13 24.56 36.29C24.56 35.73 24.56 31.27 24.56 30.72C24.56 29.88 25.03 29.2 25.6 29.2C25.67 29.2 26.28 29.2 26.36 29.2C26.93 29.2 27.4 29.88 27.4 30.72C27.4 31.09 27.4 32.95 27.4 36.29C27.09 37.3 26.74 37.81 26.36 37.81C26.28 37.81 25.67 37.81 25.6 37.81Z" id="a1kxpypokz"></path><path d="M22.99 30.72C22.99 31.27 22.99 35.73 22.99 36.29C22.99 38.39 24.16 40.11 25.6 40.11C25.67 40.11 26.28 40.11 26.36 40.11C27.8 40.11 28.97 38.39 28.97 36.29C28.97 35.73 28.97 31.27 28.97 30.72C28.97 28.61 27.8 26.9 26.36 26.9C26.21 26.9 25.67 26.9 25.6 26.9C24.16 26.9 22.99 28.61 22.99 30.72ZM25.6 37.81C25.03 37.81 24.56 37.13 24.56 36.29C24.56 35.73 24.56 31.27 24.56 30.72C24.56 29.88 25.03 29.2 25.6 29.2C25.67 29.2 26.28 29.2 26.36 29.2C26.93 29.2 27.4 29.88 27.4 30.72C27.4 31.09 27.4 32.95 27.4 36.29C27.09 37.3 26.74 37.81 26.36 37.81C26.28 37.81 25.67 37.81 25.6 37.81Z" id="e1r4hAR9QM"></path><path d="M29.94 30.78C29.94 32.91 31.13 34.65 32.59 34.65C32.66 34.65 33.2 34.65 33.27 34.65C33.86 34.65 34.35 35.36 34.35 36.23C34.35 37.1 33.86 37.81 33.27 37.81C33.16 37.81 32.29 37.81 32.18 37.81C31.81 37.81 31.51 37.37 31.51 36.83C31.51 36.8 31.51 36.52 31.51 36.48C31.51 35.84 31.16 35.33 30.73 35.33C30.29 35.33 29.94 35.84 29.94 36.48C29.94 36.52 29.94 36.8 29.94 36.83C29.94 38.64 30.94 40.11 32.18 40.11C32.29 40.11 33.16 40.11 33.27 40.11C34.73 40.11 35.92 38.37 35.92 36.23C35.92 34.09 34.73 32.35 33.27 32.35C33.2 32.35 32.66 32.35 32.59 32.35C32 32.35 31.51 31.64 31.51 30.78C31.51 29.91 32 29.2 32.59 29.2C32.7 29.2 33.57 29.2 33.68 29.2C34.05 29.2 34.35 29.64 34.35 30.17C34.35 30.2 34.35 30.46 34.35 30.5C34.35 31.13 34.7 31.65 35.13 31.65C35.57 31.65 35.92 31.13 35.92 30.5C35.92 30.46 35.92 30.2 35.92 30.17C35.92 28.37 34.92 26.9 33.68 26.9C33.46 26.9 32.7 26.9 32.59 26.9C31.13 26.9 29.94 28.64 29.94 30.78Z" id="agpsD1sbD"></path><path d="M29.94 30.78C29.94 32.91 31.13 34.65 32.59 34.65C32.66 34.65 33.2 34.65 33.27 34.65C33.86 34.65 34.35 35.36 34.35 36.23C34.35 37.1 33.86 37.81 33.27 37.81C33.16 37.81 32.29 37.81 32.18 37.81C31.81 37.81 31.51 37.37 31.51 36.83C31.51 36.8 31.51 36.52 31.51 36.48C31.51 35.84 31.16 35.33 30.73 35.33C30.29 35.33 29.94 35.84 29.94 36.48C29.94 36.52 29.94 36.8 29.94 36.83C29.94 38.64 30.94 40.11 32.18 40.11C32.29 40.11 33.16 40.11 33.27 40.11C34.73 40.11 35.92 38.37 35.92 36.23C35.92 34.09 34.73 32.35 33.27 32.35C33.2 32.35 32.66 32.35 32.59 32.35C32 32.35 31.51 31.64 31.51 30.78C31.51 29.91 32 29.2 32.59 29.2C32.7 29.2 33.57 29.2 33.68 29.2C34.05 29.2 34.35 29.64 34.35 30.17C34.35 30.2 34.35 30.46 34.35 30.5C34.35 31.13 34.7 31.65 35.13 31.65C35.57 31.65 35.92 31.13 35.92 30.5C35.92 30.46 35.92 30.2 35.92 30.17C35.92 28.37 34.92 26.9 33.68 26.9C33.46 26.9 32.7 26.9 32.59 26.9C31.13 26.9 29.94 28.64 29.94 30.78Z" id="ac9j5wvx1"></path><path d="M20.44 37.81C20.16 37.81 17.89 37.81 17.61 37.81C17.61 31.95 17.61 28.7 17.61 28.05C17.61 27.41 17.26 26.9 16.82 26.9C16.39 26.9 16.04 27.41 16.04 28.05C16.04 29.14 16.04 37.87 16.04 38.95C16.04 39.59 16.39 40.11 16.82 40.11C17.26 40.11 20.79 40.11 21.23 40.11C21.66 40.11 22.02 39.59 22.02 38.95C22.02 38.77 22.02 37.28 22.02 37.1C22.02 36.46 21.66 35.95 21.23 35.95C20.8 35.95 20.44 36.46 20.44 37.1C20.44 37.14 20.44 37.38 20.44 37.81Z" id="b2pi2gmWi3"></path><path d="M20.44 37.81C20.16 37.81 17.89 37.81 17.61 37.81C17.61 31.95 17.61 28.7 17.61 28.05C17.61 27.41 17.26 26.9 16.82 26.9C16.39 26.9 16.04 27.41 16.04 28.05C16.04 29.14 16.04 37.87 16.04 38.95C16.04 39.59 16.39 40.11 16.82 40.11C17.26 40.11 20.79 40.11 21.23 40.11C21.66 40.11 22.02 39.59 22.02 38.95C22.02 38.77 22.02 37.28 22.02 37.1C22.02 36.46 21.66 35.95 21.23 35.95C20.8 35.95 20.44 36.46 20.44 37.1C20.44 37.14 20.44 37.38 20.44 37.81Z" id="d1qWyCPfcW"></path><path d="M42.08 26.9C41.64 26.9 38.12 26.9 37.68 26.9C37.24 26.9 36.89 27.41 36.89 28.05C36.89 29.14 36.89 37.87 36.89 38.95C36.89 39.59 37.24 40.11 37.68 40.11C38.12 40.11 41.64 40.11 42.08 40.11C42.52 40.11 42.87 39.59 42.87 38.95C42.87 38.32 42.52 37.81 42.08 37.81C41.84 37.81 40.64 37.81 38.46 37.81C38.46 37.49 38.46 34.97 38.46 34.65C39.32 34.65 39.79 34.65 39.88 34.65C40.32 34.65 40.67 34.14 40.67 33.5C40.67 32.87 40.32 32.35 39.88 32.35C39.79 32.35 39.32 32.35 38.46 32.35C38.46 32.14 38.46 31.09 38.46 29.2C40.64 29.2 41.84 29.2 42.08 29.2C42.61 28.86 42.87 28.47 42.87 28.05C42.87 27.41 42.52 26.9 42.08 26.9Z" id="b6cAM6ucZI"></path><path d="M42.08 26.9C41.64 26.9 38.12 26.9 37.68 26.9C37.24 26.9 36.89 27.41 36.89 28.05C36.89 29.14 36.89 37.87 36.89 38.95C36.89 39.59 37.24 40.11 37.68 40.11C38.12 40.11 41.64 40.11 42.08 40.11C42.52 40.11 42.87 39.59 42.87 38.95C42.87 38.32 42.52 37.81 42.08 37.81C41.84 37.81 40.64 37.81 38.46 37.81C38.46 37.49 38.46 34.97 38.46 34.65C39.32 34.65 39.79 34.65 39.88 34.65C40.32 34.65 40.67 34.14 40.67 33.5C40.67 32.87 40.32 32.35 39.88 32.35C39.79 32.35 39.32 32.35 38.46 32.35C38.46 32.14 38.46 31.09 38.46 29.2C40.64 29.2 41.84 29.2 42.08 29.2C42.61 28.86 42.87 28.47 42.87 28.05C42.87 27.41 42.52 26.9 42.08 26.9Z" id="a69tA64vk"></path></defs><g><g><g><use xlink:href="#bjNWUXEuW" opacity="1" fill="#f95428" fill-opacity="1"></use><g><use xlink:href="#bjNWUXEuW" opacity="1" fill-opacity="0" stroke="#000000" stroke-width="1" stroke-opacity="0"></use></g></g><g><use xlink:href="#a2CuUilP5l" opacity="1" fill="#000000" fill-opacity="0"></use><g><use xlink:href="#a2CuUilP5l" opacity="1" fill-opacity="0" stroke="#000000" stroke-width="1" stroke-opacity="0"></use></g></g><g><use xlink:href="#a1eJzfwS2v" opacity="1" fill="#f7b239" fill-opacity="1"></use><g><use xlink:href="#a1eJzfwS2v" opacity="1" fill-opacity="0" stroke="#000000" stroke-width="1" stroke-opacity="0"></use></g></g><g><use xlink:href="#a1fxOZJoct" opacity="1" fill="#000000" fill-opacity="0"></use><g><use xlink:href="#a1fxOZJoct" opacity="1" fill-opacity="0" stroke="#000000" stroke-width="1" stroke-opacity="0"></use></g></g><g><use xlink:href="#gK2j2bfPm" opacity="1" fill="#333333" fill-opacity="1"></use><g><use xlink:href="#gK2j2bfPm" opacity="1" fill-opacity="0" stroke="#000000" stroke-width="1" stroke-opacity="0"></use></g></g><g><use xlink:href="#e2qnwaY8fs" opacity="1" fill="#000000" fill-opacity="0"></use><g><use xlink:href="#e2qnwaY8fs" opacity="1" fill-opacity="0" stroke="#000000" stroke-width="1" stroke-opacity="0"></use></g></g><g><use xlink:href="#c3bmoDqE7q" opacity="1" fill="#f2f2f2" fill-opacity="1"></use><g><use xlink:href="#c3bmoDqE7q" opacity="1" fill-opacity="0" stroke="#000000" stroke-width="1" stroke-opacity="0"></use></g></g><g><use xlink:href="#avPKGwMX6" opacity="1" fill="#000000" fill-opacity="0"></use><g><use xlink:href="#avPKGwMX6" opacity="1" fill-opacity="0" stroke="#000000" stroke-width="1" stroke-opacity="0"></use></g></g><g><use xlink:href="#a1kxpypokz" opacity="1" fill="#f2f2f2" fill-opacity="1"></use><g><use xlink:href="#a1kxpypokz" opacity="1" fill-opacity="0" stroke="#000000" stroke-width="1" stroke-opacity="0"></use></g></g><g><use xlink:href="#e1r4hAR9QM" opacity="1" fill="#000000" fill-opacity="0"></use><g><use xlink:href="#e1r4hAR9QM" opacity="1" fill-opacity="0" stroke="#000000" stroke-width="1" stroke-opacity="0"></use></g></g><g><use xlink:href="#agpsD1sbD" opacity="1" fill="#f2f2f2" fill-opacity="1"></use><g><use xlink:href="#agpsD1sbD" opacity="1" fill-opacity="0" stroke="#000000" stroke-width="1" stroke-opacity="0"></use></g></g><g><use xlink:href="#ac9j5wvx1" opacity="1" fill="#000000" fill-opacity="0"></use><g><use xlink:href="#ac9j5wvx1" opacity="1" fill-opacity="0" stroke="#000000" stroke-width="1" stroke-opacity="0"></use></g></g><g><use xlink:href="#b2pi2gmWi3" opacity="1" fill="#f2f2f2" fill-opacity="1"></use><g><use xlink:href="#b2pi2gmWi3" opacity="1" fill-opacity="0" stroke="#000000" stroke-width="1" stroke-opacity="0"></use></g></g><g><use xlink:href="#d1qWyCPfcW" opacity="1" fill="#000000" fill-opacity="0"></use><g><use xlink:href="#d1qWyCPfcW" opacity="1" fill-opacity="0" stroke="#000000" stroke-width="1" stroke-opacity="0"></use></g></g><g><use xlink:href="#b6cAM6ucZI" opacity="1" fill="#f2f2f2" fill-opacity="1"></use><g><use xlink:href="#b6cAM6ucZI" opacity="1" fill-opacity="0" stroke="#000000" stroke-width="1" stroke-opacity="0"></use></g></g><g><use xlink:href="#a69tA64vk" opacity="1" fill="#000000" fill-opacity="0"></use><g><use xlink:href="#a69tA64vk" opacity="1" fill-opacity="0" stroke="#000000" stroke-width="1" stroke-opacity="0"></use></g></g></g></g></svg>