<?xml version="1.0" encoding="UTF-8" standalone="no"?>
<!DOCTYPE svg PUBLIC "-//W3C//DTD SVG 1.1//EN" "http://www.w3.org/Graphics/SVG/1.1/DTD/svg11.dtd">
<svg version="1.1" xmlns="http://www.w3.org/2000/svg" xmlns:xlink="http://www.w3.org/1999/xlink" preserveAspectRatio="xMidYMid meet" viewBox="0 0 640 640" width="50" height="50"><defs><path d="M45.3 43.16C40.49 47.57 33.93 50.29 26.68 50.29C19.44 50.29 12.87 47.57 8.06 43.16C6.99 42.17 6.01 41.11 5.13 39.97C1.9 35.81 0 30.69 0 25.15C0 11.26 11.94 0 26.68 0C41.42 0 53.36 11.26 53.36 25.15C53.36 30.3 51.72 35.09 48.9 39.07C47.86 40.55 46.65 41.92 45.3 43.16Z" id="cgXqKZmh9"></path><path d="M45.3 43.16C40.49 47.57 33.93 50.29 26.68 50.29C19.44 50.29 12.87 47.57 8.06 43.16C6.99 42.17 6.01 41.11 5.13 39.97C1.9 35.81 0 30.69 0 25.15C0 11.26 11.94 0 26.68 0C41.42 0 53.36 11.26 53.36 25.15C53.36 30.3 51.72 35.09 48.9 39.07C47.86 40.55 46.65 41.92 45.3 43.16Z" id="dSoioyJPA"></path><path d="M48.9 39.07C47.86 40.55 46.65 41.92 45.3 43.16C41.58 43.16 11.79 43.16 8.06 43.16C6.99 42.17 6.01 41.11 5.13 39.97C5.13 38.99 5.13 34.1 5.13 25.3C8.04 25.3 22.64 25.3 48.9 25.3C48.9 33.87 48.9 38.46 48.9 39.07Z" id="hOR2HmXPf"></path><path d="M48.9 39.07C47.86 40.55 46.65 41.92 45.3 43.16C41.58 43.16 11.79 43.16 8.06 43.16C6.99 42.17 6.01 41.11 5.13 39.97C5.13 38.99 5.13 34.1 5.13 25.3C8.04 25.3 22.64 25.3 48.9 25.3C48.9 33.87 48.9 38.46 48.9 39.07Z" id="f1Rv0NC1qQ"></path><path d="M27 4.03C16.07 18.35 10 26.31 8.78 27.9C8.43 28.36 7.75 28.46 7.26 28.13C6.78 27.8 6.67 27.16 7.02 26.7C8.93 24.2 24.22 4.16 26.13 1.66C26.33 1.39 26.67 1.23 27.02 1.23C27.37 1.23 27.7 1.39 27.9 1.67C29.82 4.23 45.11 24.76 47.02 27.33C47.36 27.79 47.24 28.43 46.75 28.76C46.56 28.88 46.34 28.94 46.13 28.94C45.78 28.94 45.45 28.79 45.23 28.51C44.02 26.87 37.94 18.71 27 4.03Z" id="aJ5TzSvxc"></path><path d="M27 4.03C16.07 18.35 10 26.31 8.78 27.9C8.43 28.36 7.75 28.46 7.26 28.13C6.78 27.8 6.67 27.16 7.02 26.7C8.93 24.2 24.22 4.16 26.13 1.66C26.33 1.39 26.67 1.23 27.02 1.23C27.37 1.23 27.7 1.39 27.9 1.67C29.82 4.23 45.11 24.76 47.02 27.33C47.36 27.79 47.24 28.43 46.75 28.76C46.56 28.88 46.34 28.94 46.13 28.94C45.78 28.94 45.45 28.79 45.23 28.51C44.02 26.87 37.94 18.71 27 4.03Z" id="cpVDbobMr"></path><path d="M13.67 35.54C13.67 36.2 14.01 36.52 14.61 36.52C15.45 36.52 15.5 35.92 15.53 35.54C15.56 35.18 15.91 35.08 16.33 35.08C16.89 35.08 17.15 35.21 17.15 35.8C17.15 37.11 16.03 37.85 14.54 37.85C13.18 37.85 12.05 37.22 12.05 35.54C12.05 35.28 12.05 33.2 12.05 32.94C12.05 31.25 13.18 30.63 14.54 30.63C16.03 30.63 17.15 31.33 17.15 32.58C17.15 33.16 16.89 33.3 16.34 33.3C15.9 33.3 15.55 33.19 15.53 32.84C15.52 32.59 15.49 31.96 14.6 31.96C14.01 31.96 13.67 32.27 13.67 32.94C13.67 33.2 13.67 35.28 13.67 35.54Z" id="a2zZq80jP5"></path><path d="M13.67 35.54C13.67 36.2 14.01 36.52 14.61 36.52C15.45 36.52 15.5 35.92 15.53 35.54C15.56 35.18 15.91 35.08 16.33 35.08C16.89 35.08 17.15 35.21 17.15 35.8C17.15 37.11 16.03 37.85 14.54 37.85C13.18 37.85 12.05 37.22 12.05 35.54C12.05 35.28 12.05 33.2 12.05 32.94C12.05 31.25 13.18 30.63 14.54 30.63C16.03 30.63 17.15 31.33 17.15 32.58C17.15 33.16 16.89 33.3 16.34 33.3C15.9 33.3 15.55 33.19 15.53 32.84C15.52 32.59 15.49 31.96 14.6 31.96C14.01 31.96 13.67 32.27 13.67 32.94C13.67 33.2 13.67 35.28 13.67 35.54Z" id="eIjFwP8Rc"></path><path d="M18.6 37.32C18.6 36.7 18.6 31.71 18.6 31.09C18.6 30.76 19 30.63 19.41 30.63C19.81 30.63 20.22 30.76 20.22 31.09C20.22 31.45 20.22 33.24 20.22 36.46C21.64 36.46 22.43 36.46 22.59 36.46C22.9 36.46 23.06 36.79 23.06 37.12C23.06 37.46 22.9 37.79 22.59 37.79C21.93 37.79 19.96 37.79 19.3 37.79C18.95 37.79 18.6 37.64 18.6 37.32Z" id="a1vYerciwN"></path><path d="M18.6 37.32C18.6 36.7 18.6 31.71 18.6 31.09C18.6 30.76 19 30.63 19.41 30.63C19.81 30.63 20.22 30.76 20.22 31.09C20.22 31.45 20.22 33.24 20.22 36.46C21.64 36.46 22.43 36.46 22.59 36.46C22.9 36.46 23.06 36.79 23.06 37.12C23.06 37.46 22.9 37.79 22.59 37.79C21.93 37.79 19.96 37.79 19.3 37.79C18.95 37.79 18.6 37.64 18.6 37.32Z" id="aaI0uXGXti"></path><path d="M26.69 30.63C28.13 30.63 29.25 31.25 29.25 32.94C29.25 33.2 29.25 35.28 29.25 35.54C29.25 37.22 28.13 37.85 26.69 37.85C25.25 37.85 24.14 37.22 24.14 35.54C24.14 35.02 24.14 33.2 24.14 32.94C24.14 31.25 25.25 30.63 26.69 30.63ZM26.69 31.96C26.11 31.96 25.76 32.26 25.76 32.94C25.76 33.2 25.76 35.28 25.76 35.54C25.76 36.21 26.11 36.52 26.69 36.52C27.27 36.52 27.63 36.21 27.63 35.54C27.63 35.02 27.63 33.46 27.63 32.94C27.63 32.26 27.27 31.96 26.69 31.96Z" id="c3rXyfM0As"></path><path d="M26.69 30.63C28.13 30.63 29.25 31.25 29.25 32.94C29.25 33.2 29.25 35.28 29.25 35.54C29.25 37.22 28.13 37.85 26.69 37.85C25.25 37.85 24.14 37.22 24.14 35.54C24.14 35.02 24.14 33.2 24.14 32.94C24.14 31.25 25.25 30.63 26.69 30.63ZM26.69 31.96C26.11 31.96 25.76 32.26 25.76 32.94C25.76 33.2 25.76 35.28 25.76 35.54C25.76 36.21 26.11 36.52 26.69 36.52C27.27 36.52 27.63 36.21 27.63 35.54C27.63 35.02 27.63 33.46 27.63 32.94C27.63 32.26 27.27 31.96 26.69 31.96Z" id="g1O8Eb4bUC"></path><path d="M33.4 30.57C33.95 30.57 35.47 30.67 35.47 31.43C35.47 31.7 35.28 32.23 34.82 32.23C34.45 32.23 34.25 31.86 33.4 31.86C32.66 31.86 32.36 32.14 32.36 32.45C32.36 33.43 35.66 33.24 35.66 35.71C35.66 37.12 34.56 37.89 33.06 37.89C31.69 37.89 30.55 37.26 30.55 36.62C30.55 36.28 30.86 35.79 31.26 35.79C31.75 35.79 32.06 36.52 33.03 36.52C33.5 36.52 34.03 36.34 34.03 35.87C34.03 34.68 30.74 34.89 30.74 32.6C30.74 31.12 32.1 30.57 33.4 30.57Z" id="bd9AqX6ka"></path><path d="M33.4 30.57C33.95 30.57 35.47 30.67 35.47 31.43C35.47 31.7 35.28 32.23 34.82 32.23C34.45 32.23 34.25 31.86 33.4 31.86C32.66 31.86 32.36 32.14 32.36 32.45C32.36 33.43 35.66 33.24 35.66 35.71C35.66 37.12 34.56 37.89 33.06 37.89C31.69 37.89 30.55 37.26 30.55 36.62C30.55 36.28 30.86 35.79 31.26 35.79C31.75 35.79 32.06 36.52 33.03 36.52C33.5 36.52 34.03 36.34 34.03 35.87C34.03 34.68 30.74 34.89 30.74 32.6C30.74 31.12 32.1 30.57 33.4 30.57Z" id="c6DPw5cV2K"></path><path d="M40.26 33.62C40.58 33.62 40.75 33.9 40.75 34.21C40.75 34.48 40.61 34.79 40.26 34.79C40.16 34.79 39.64 34.79 38.7 34.79C38.7 34.96 38.7 36.29 38.7 36.46C40.38 36.46 41.31 36.46 41.49 36.46C41.8 36.46 41.98 36.77 41.98 37.14C41.98 37.45 41.84 37.79 41.49 37.79C41.12 37.79 38.16 37.79 37.79 37.79C37.43 37.79 37.08 37.64 37.08 37.32C37.08 36.7 37.08 31.72 37.08 31.1C37.08 30.78 37.43 30.63 37.79 30.63C38.16 30.63 41.12 30.63 41.49 30.63C41.84 30.63 41.98 30.97 41.98 31.28C41.98 31.65 41.8 31.96 41.49 31.96C41.31 31.96 40.38 31.96 38.7 31.96C38.7 32.07 38.7 32.62 38.7 33.62C39.67 33.62 40.19 33.62 40.26 33.62Z" id="c2HtN9CDLE"></path><path d="M40.26 33.62C40.58 33.62 40.75 33.9 40.75 34.21C40.75 34.48 40.61 34.79 40.26 34.79C40.16 34.79 39.64 34.79 38.7 34.79C38.7 34.96 38.7 36.29 38.7 36.46C40.38 36.46 41.31 36.46 41.49 36.46C41.8 36.46 41.98 36.77 41.98 37.14C41.98 37.45 41.84 37.79 41.49 37.79C41.12 37.79 38.16 37.79 37.79 37.79C37.43 37.79 37.08 37.64 37.08 37.32C37.08 36.7 37.08 31.72 37.08 31.1C37.08 30.78 37.43 30.63 37.79 30.63C38.16 30.63 41.12 30.63 41.49 30.63C41.84 30.63 41.98 30.97 41.98 31.28C41.98 31.65 41.8 31.96 41.49 31.96C41.31 31.96 40.38 31.96 38.7 31.96C38.7 32.07 38.7 32.62 38.7 33.62C39.67 33.62 40.19 33.62 40.26 33.62Z" id="bmIxf90Cv"></path><path d="M42.83 8.85L50.26 25.28L9.99 41.45L2.56 25.02L42.83 8.85Z" id="dKOlLdd9R"></path><path d="M42.83 8.85L50.26 25.28L9.99 41.45L2.56 25.02L42.83 8.85Z" id="b2K6WpbmT1"></path><path d="M15.82 25.48C17.14 24.95 18.43 25.11 19.13 26.66C19.24 26.9 20.11 28.81 20.21 29.05C20.91 30.6 20.14 31.59 18.82 32.12C17.5 32.65 16.22 32.49 15.51 30.93C15.3 30.46 14.54 28.78 14.43 28.54C13.73 26.99 14.5 26 15.82 25.48ZM16.37 26.7C15.84 26.92 15.65 27.32 15.93 27.94C16.03 28.19 16.9 30.1 17.01 30.33C17.29 30.96 17.73 31.11 18.27 30.9C18.8 30.68 19 30.27 18.72 29.65C18.5 29.17 17.86 27.74 17.64 27.26C17.36 26.64 16.91 26.49 16.37 26.7Z" id="a1blV5KUq4"></path><path d="M15.82 25.48C17.14 24.95 18.43 25.11 19.13 26.66C19.24 26.9 20.11 28.81 20.21 29.05C20.91 30.6 20.14 31.59 18.82 32.12C17.5 32.65 16.22 32.49 15.51 30.93C15.3 30.46 14.54 28.78 14.43 28.54C13.73 26.99 14.5 26 15.82 25.48ZM16.37 26.7C15.84 26.92 15.65 27.32 15.93 27.94C16.03 28.19 16.9 30.1 17.01 30.33C17.29 30.96 17.73 31.11 18.27 30.9C18.8 30.68 19 30.27 18.72 29.65C18.5 29.17 17.86 27.74 17.64 27.26C17.36 26.64 16.91 26.49 16.37 26.7Z" id="a1a35UL4iU"></path><path d="M20.26 23.69C20.46 23.61 22.04 22.98 22.24 22.9C23.5 22.39 24.75 22.55 25.43 24.06C25.43 24.07 25.45 24.1 25.45 24.11C26.14 25.62 25.37 26.62 24.04 27.15C23.98 27.17 23.67 27.3 23.1 27.53C23.63 28.7 23.92 29.34 23.98 29.47C24.11 29.76 23.8 30.06 23.43 30.21C23.05 30.36 22.62 30.36 22.49 30.07C21.97 28.93 20.41 25.49 19.89 24.34C19.79 24.11 19.92 23.83 20.26 23.69ZM22.61 26.45C23.18 26.22 23.49 26.09 23.56 26.06C24.09 25.85 24.29 25.43 24.01 24.82C24 24.81 23.97 24.73 23.96 24.72C23.69 24.1 23.23 23.95 22.7 24.16C22.57 24.21 22.26 24.34 21.75 24.54C21.92 24.92 22.52 26.25 22.61 26.45Z" id="c2MMgZKr6"></path><path d="M20.26 23.69C20.46 23.61 22.04 22.98 22.24 22.9C23.5 22.39 24.75 22.55 25.43 24.06C25.43 24.07 25.45 24.1 25.45 24.11C26.14 25.62 25.37 26.62 24.04 27.15C23.98 27.17 23.67 27.3 23.1 27.53C23.63 28.7 23.92 29.34 23.98 29.47C24.11 29.76 23.8 30.06 23.43 30.21C23.05 30.36 22.62 30.36 22.49 30.07C21.97 28.93 20.41 25.49 19.89 24.34C19.79 24.11 19.92 23.83 20.26 23.69ZM22.61 26.45C23.18 26.22 23.49 26.09 23.56 26.06C24.09 25.85 24.29 25.43 24.01 24.82C24 24.81 23.97 24.73 23.96 24.72C23.69 24.1 23.23 23.95 22.7 24.16C22.57 24.21 22.26 24.34 21.75 24.54C21.92 24.92 22.52 26.25 22.61 26.45Z" id="aFuZrmGJo"></path><path d="M29.89 23.07C30.18 22.96 30.46 23.15 30.59 23.44C30.7 23.68 30.7 24.03 30.38 24.16C30.29 24.19 29.81 24.38 28.95 24.73C29.02 24.88 29.57 26.11 29.64 26.26C31.18 25.65 32.03 25.3 32.2 25.23C32.49 25.12 32.78 25.34 32.94 25.67C33.07 25.96 33.07 26.33 32.76 26.46C32.42 26.6 29.69 27.69 29.35 27.83C29.03 27.96 28.63 27.94 28.5 27.66C28.25 27.08 26.17 22.5 25.91 21.93C25.79 21.64 26.05 21.37 26.37 21.24C26.71 21.1 29.44 20 29.78 19.87C30.09 19.74 30.37 20 30.5 20.29C30.65 20.62 30.62 20.98 30.33 21.1C30.16 21.16 29.31 21.51 27.77 22.12C27.81 22.23 28.04 22.73 28.46 23.65C29.35 23.29 29.83 23.1 29.89 23.07Z" id="a2xsRqMWP"></path><path d="M29.89 23.07C30.18 22.96 30.46 23.15 30.59 23.44C30.7 23.68 30.7 24.03 30.38 24.16C30.29 24.19 29.81 24.38 28.95 24.73C29.02 24.88 29.57 26.11 29.64 26.26C31.18 25.65 32.03 25.3 32.2 25.23C32.49 25.12 32.78 25.34 32.94 25.67C33.07 25.96 33.07 26.33 32.76 26.46C32.42 26.6 29.69 27.69 29.35 27.83C29.03 27.96 28.63 27.94 28.5 27.66C28.25 27.08 26.17 22.5 25.91 21.93C25.79 21.64 26.05 21.37 26.37 21.24C26.71 21.1 29.44 20 29.78 19.87C30.09 19.74 30.37 20 30.5 20.29C30.65 20.62 30.62 20.98 30.33 21.1C30.16 21.16 29.31 21.51 27.77 22.12C27.81 22.23 28.04 22.73 28.46 23.65C29.35 23.29 29.83 23.1 29.89 23.07Z" id="gcVld4yuT"></path><path d="M35.73 24.75C35.86 25.04 35.55 25.34 35.18 25.49C34.81 25.64 34.37 25.64 34.24 25.35C33.98 24.78 31.91 20.2 31.65 19.63C31.51 19.33 31.82 19.05 32.2 18.9C32.73 18.68 32.96 18.65 33.62 19.16C33.81 19.3 34.74 20.02 36.43 21.32C35.59 19.48 35.13 18.46 35.04 18.26C34.91 17.96 35.22 17.68 35.59 17.53C35.97 17.38 36.4 17.36 36.53 17.66C36.79 18.23 38.87 22.82 39.13 23.39C39.26 23.68 38.95 23.97 38.58 24.12C38.23 24.26 37.9 24.32 37.57 24.08C37.14 23.76 36.06 22.96 34.34 21.69C35.17 23.53 35.64 24.55 35.73 24.75Z" id="dm1KD53j2"></path><path d="M35.73 24.75C35.86 25.04 35.55 25.34 35.18 25.49C34.81 25.64 34.37 25.64 34.24 25.35C33.98 24.78 31.91 20.2 31.65 19.63C31.51 19.33 31.82 19.05 32.2 18.9C32.73 18.68 32.96 18.65 33.62 19.16C33.81 19.3 34.74 20.02 36.43 21.32C35.59 19.48 35.13 18.46 35.04 18.26C34.91 17.96 35.22 17.68 35.59 17.53C35.97 17.38 36.4 17.36 36.53 17.66C36.79 18.23 38.87 22.82 39.13 23.39C39.26 23.68 38.95 23.97 38.58 24.12C38.23 24.26 37.9 24.32 37.57 24.08C37.14 23.76 36.06 22.96 34.34 21.69C35.17 23.53 35.64 24.55 35.73 24.75Z" id="a6hcpmUT1"></path><path d="M5.26 25.42C7.32 23.06 23.78 4.26 25.84 1.91C26.19 1.52 26.78 1.42 27.25 1.69C28.77 2.56 40.92 9.54 42.44 10.41C42.96 10.71 43.12 11.34 42.81 11.82C42.49 12.31 41.83 12.46 41.31 12.17C40.35 11.62 35.55 8.86 26.92 3.91C14.94 17.6 8.27 25.2 6.94 26.72C6.73 26.97 6.42 27.09 6.1 27.09C5.86 27.09 5.61 27.02 5.41 26.86C4.95 26.5 4.88 25.85 5.26 25.42Z" id="c3lMRJbY3M"></path><path d="M5.26 25.42C7.32 23.06 23.78 4.26 25.84 1.91C26.19 1.52 26.78 1.42 27.25 1.69C28.77 2.56 40.92 9.54 42.44 10.41C42.96 10.71 43.12 11.34 42.81 11.82C42.49 12.31 41.83 12.46 41.31 12.17C40.35 11.62 35.55 8.86 26.92 3.91C14.94 17.6 8.27 25.2 6.94 26.72C6.73 26.97 6.42 27.09 6.1 27.09C5.86 27.09 5.61 27.02 5.41 26.86C4.95 26.5 4.88 25.85 5.26 25.42Z" id="a27okkah4"></path><path d="M24.61 2.57C24.61 1.49 25.54 0.61 26.68 0.61C27.83 0.61 28.75 1.49 28.75 2.57C28.75 3.64 27.83 4.52 26.68 4.52C25.54 4.52 24.61 3.64 24.61 2.57Z" id="dcYzZnzH"></path><path d="M24.61 2.57C24.61 1.49 25.54 0.61 26.68 0.61C27.83 0.61 28.75 1.49 28.75 2.57C28.75 3.64 27.83 4.52 26.68 4.52C25.54 4.52 24.61 3.64 24.61 2.57Z" id="b1RAjV5JPP"></path></defs><g><g><g><use xlink:href="#cgXqKZmh9" opacity="1" fill="#ff903c" fill-opacity="1"></use><g><use xlink:href="#cgXqKZmh9" opacity="1" fill-opacity="0" stroke="#000000" stroke-width="1" stroke-opacity="0"></use></g></g><g><use xlink:href="#dSoioyJPA" opacity="1" fill="#000000" fill-opacity="0"></use><g><use xlink:href="#dSoioyJPA" opacity="1" fill-opacity="0" stroke="#000000" stroke-width="1" stroke-opacity="0"></use></g></g><g><use xlink:href="#hOR2HmXPf" opacity="1" fill="#f26065" fill-opacity="1"></use><g><use xlink:href="#hOR2HmXPf" opacity="1" fill-opacity="0" stroke="#000000" stroke-width="1" stroke-opacity="0"></use></g></g><g><use xlink:href="#f1Rv0NC1qQ" opacity="1" fill="#000000" fill-opacity="0"></use><g><use xlink:href="#f1Rv0NC1qQ" opacity="1" fill-opacity="0" stroke="#000000" stroke-width="1" stroke-opacity="0"></use></g></g><g><use xlink:href="#aJ5TzSvxc" opacity="1" fill="#e03a68" fill-opacity="1"></use><g><use xlink:href="#aJ5TzSvxc" opacity="1" fill-opacity="0" stroke="#000000" stroke-width="1" stroke-opacity="0"></use></g></g><g><use xlink:href="#cpVDbobMr" opacity="1" fill="#000000" fill-opacity="0"></use><g><use xlink:href="#cpVDbobMr" opacity="1" fill-opacity="0" stroke="#000000" stroke-width="1" stroke-opacity="0"></use></g></g><g><use xlink:href="#a2zZq80jP5" opacity="1" fill="#f2f2f2" fill-opacity="1"></use><g><use xlink:href="#a2zZq80jP5" opacity="1" fill-opacity="0" stroke="#000000" stroke-width="1" stroke-opacity="0"></use></g></g><g><use xlink:href="#eIjFwP8Rc" opacity="1" fill="#000000" fill-opacity="0"></use><g><use xlink:href="#eIjFwP8Rc" opacity="1" fill-opacity="0" stroke="#000000" stroke-width="1" stroke-opacity="0"></use></g></g><g><use xlink:href="#a1vYerciwN" opacity="1" fill="#ffffff" fill-opacity="1"></use><g><use xlink:href="#a1vYerciwN" opacity="1" fill-opacity="0" stroke="#000000" stroke-width="1" stroke-opacity="0"></use></g></g><g><use xlink:href="#aaI0uXGXti" opacity="1" fill="#000000" fill-opacity="0"></use><g><use xlink:href="#aaI0uXGXti" opacity="1" fill-opacity="0" stroke="#000000" stroke-width="1" stroke-opacity="0"></use></g></g><g><use xlink:href="#c3rXyfM0As" opacity="1" fill="#ffffff" fill-opacity="1"></use><g><use xlink:href="#c3rXyfM0As" opacity="1" fill-opacity="0" stroke="#000000" stroke-width="1" stroke-opacity="0"></use></g></g><g><use xlink:href="#g1O8Eb4bUC" opacity="1" fill="#000000" fill-opacity="0"></use><g><use xlink:href="#g1O8Eb4bUC" opacity="1" fill-opacity="0" stroke="#000000" stroke-width="1" stroke-opacity="0"></use></g></g><g><use xlink:href="#bd9AqX6ka" opacity="1" fill="#ffffff" fill-opacity="1"></use><g><use xlink:href="#bd9AqX6ka" opacity="1" fill-opacity="0" stroke="#000000" stroke-width="1" stroke-opacity="0"></use></g></g><g><use xlink:href="#c6DPw5cV2K" opacity="1" fill="#000000" fill-opacity="0"></use><g><use xlink:href="#c6DPw5cV2K" opacity="1" fill-opacity="0" stroke="#000000" stroke-width="1" stroke-opacity="0"></use></g></g><g><use xlink:href="#c2HtN9CDLE" opacity="1" fill="#ffffff" fill-opacity="1"></use><g><use xlink:href="#c2HtN9CDLE" opacity="1" fill-opacity="0" stroke="#000000" stroke-width="1" stroke-opacity="0"></use></g></g><g><use xlink:href="#bmIxf90Cv" opacity="1" fill="#000000" fill-opacity="0"></use><g><use xlink:href="#bmIxf90Cv" opacity="1" fill-opacity="0" stroke="#000000" stroke-width="1" stroke-opacity="0"></use></g></g><g><use xlink:href="#dKOlLdd9R" opacity="1" fill="#349cdd" fill-opacity="1"></use><g><use xlink:href="#dKOlLdd9R" opacity="1" fill-opacity="0" stroke="#000000" stroke-width="1" stroke-opacity="0"></use></g></g><g><use xlink:href="#b2K6WpbmT1" opacity="1" fill="#000000" fill-opacity="0"></use><g><use xlink:href="#b2K6WpbmT1" opacity="1" fill-opacity="0" stroke="#000000" stroke-width="1" stroke-opacity="0"></use></g></g><g><use xlink:href="#a1blV5KUq4" opacity="1" fill="#314c8f" fill-opacity="1"></use><g><use xlink:href="#a1blV5KUq4" opacity="1" fill-opacity="0" stroke="#000000" stroke-width="1" stroke-opacity="0"></use></g></g><g><use xlink:href="#a1a35UL4iU" opacity="1" fill="#000000" fill-opacity="0"></use><g><use xlink:href="#a1a35UL4iU" opacity="1" fill-opacity="0" stroke="#000000" stroke-width="1" stroke-opacity="0"></use></g></g><g><use xlink:href="#c2MMgZKr6" opacity="1" fill="#314c8f" fill-opacity="1"></use><g><use xlink:href="#c2MMgZKr6" opacity="1" fill-opacity="0" stroke="#000000" stroke-width="1" stroke-opacity="0"></use></g></g><g><use xlink:href="#aFuZrmGJo" opacity="1" fill="#000000" fill-opacity="0"></use><g><use xlink:href="#aFuZrmGJo" opacity="1" fill-opacity="0" stroke="#000000" stroke-width="1" stroke-opacity="0"></use></g></g><g><use xlink:href="#a2xsRqMWP" opacity="1" fill="#314c8f" fill-opacity="1"></use><g><use xlink:href="#a2xsRqMWP" opacity="1" fill-opacity="0" stroke="#000000" stroke-width="1" stroke-opacity="0"></use></g></g><g><use xlink:href="#gcVld4yuT" opacity="1" fill="#000000" fill-opacity="0"></use><g><use xlink:href="#gcVld4yuT" opacity="1" fill-opacity="0" stroke="#000000" stroke-width="1" stroke-opacity="0"></use></g></g><g><use xlink:href="#dm1KD53j2" opacity="1" fill="#314c8f" fill-opacity="1"></use><g><use xlink:href="#dm1KD53j2" opacity="1" fill-opacity="0" stroke="#000000" stroke-width="1" stroke-opacity="0"></use></g></g><g><use xlink:href="#a6hcpmUT1" opacity="1" fill="#000000" fill-opacity="0"></use><g><use xlink:href="#a6hcpmUT1" opacity="1" fill-opacity="0" stroke="#000000" stroke-width="1" stroke-opacity="0"></use></g></g><g><use xlink:href="#c3lMRJbY3M" opacity="1" fill="#0078aa" fill-opacity="1"></use><g><use xlink:href="#c3lMRJbY3M" opacity="1" fill-opacity="0" stroke="#000000" stroke-width="1" stroke-opacity="0"></use></g></g><g><use xlink:href="#a27okkah4" opacity="1" fill="#000000" fill-opacity="0"></use><g><use xlink:href="#a27okkah4" opacity="1" fill-opacity="0" stroke="#000000" stroke-width="1" stroke-opacity="0"></use></g></g><g><use xlink:href="#dcYzZnzH" opacity="1" fill="#ffe662" fill-opacity="1"></use><g><use xlink:href="#dcYzZnzH" opacity="1" fill-opacity="0" stroke="#000000" stroke-width="1" stroke-opacity="0"></use></g></g><g><use xlink:href="#b1RAjV5JPP" opacity="1" fill="#000000" fill-opacity="0"></use><g><use xlink:href="#b1RAjV5JPP" opacity="1" fill-opacity="0" stroke="#000000" stroke-width="1" stroke-opacity="0"></use></g></g></g></g></svg>