<svg height="512pt" viewBox="0 0 512 512" width="512pt" xmlns="http://www.w3.org/2000/svg"><path d="m512 256c0 52.433594-15.757812 101.1875-42.808594 141.773438-10.03125 15.054687-21.621094 28.996093-34.535156 41.574218-46.132812 44.960938-109.148438 72.652344-178.65625 72.652344s-132.523438-27.691406-178.65625-72.652344c-10.273438-10-19.695312-20.867187-28.179688-32.464844-30.921874-42.308593-49.164062-94.46875-49.164062-150.882812 0-141.386719 114.613281-256 256-256s256 114.613281 256 256zm0 0" fill="#ff903c"/><path d="m469.191406 257.546875v140.226563c-10.03125 15.054687-21.621094 28.996093-34.535156 41.574218h-357.3125c-10.273438-10-19.695312-20.867187-28.179688-32.464844v-149.335937zm0 0" fill="#f26065"/><path d="m442.554688 294.640625c-3.292969 0-6.527344-1.550781-8.5625-4.449219l-174.921876-249.203125-174.785156 243.035157c-3.367187 4.683593-9.898437 5.75-14.582031 2.382812-4.683594-3.371094-5.753906-9.902344-2.382813-14.585938l183.371094-254.972656c1.976563-2.746094 5.203125-4.355468 8.542969-4.347656 3.382813.019531 6.546875 1.675781 8.492187 4.445312l183.371094 261.242188c3.316406 4.726562 2.171875 11.242188-2.550781 14.554688-1.824219 1.28125-3.921875 1.898437-5.992187 1.898437zm0 0" fill="#e03a68"/><path d="m140.113281 325.34375c-5.6875 0-8.980469 3.195312-8.980469 9.980469v26.445312c0 6.789063 3.292969 9.980469 9.078126 9.980469 7.984374 0 8.484374-6.085938 8.78125-9.980469.300781-3.691406 3.695312-4.6875 7.6875-4.6875 5.386718 0 7.882812 1.394531 7.882812 7.382813 0 13.273437-10.777344 20.855468-25.046875 20.855468-13.074219 0-23.953125-6.386718-23.953125-23.550781v-26.445312c0-17.164063 10.878906-23.550781 23.953125-23.550781 14.269531 0 25.046875 7.1875 25.046875 19.859374 0 5.988282-2.496094 7.382813-7.785156 7.382813-4.191406 0-7.582032-1.09375-7.785156-4.6875-.097657-2.597656-.394532-8.984375-8.878907-8.984375zm0 0" fill="#f2f2f2"/><g fill="#fff"><path d="m185.222656 384.722656c-3.390625 0-6.785156-1.597656-6.785156-4.789062v-63.46875c0-3.292969 3.894531-4.691406 7.785156-4.691406s7.785156 1.398437 7.785156 4.691406v54.6875h22.75c2.992188 0 4.492188 3.390625 4.492188 6.785156s-1.5 6.785156-4.492188 6.785156zm0 0"/><path d="m231.632812 361.769531v-26.445312c0-17.164063 10.675782-23.550781 24.449219-23.550781 13.769531 0 24.546875 6.386718 24.546875 23.550781v26.445312c0 17.164063-10.777344 23.550781-24.546875 23.550781-13.773437 0-24.449219-6.386718-24.449219-23.550781zm33.429688-26.445312c0-6.882813-3.394531-9.980469-8.980469-9.980469-5.589843 0-8.882812 3.097656-8.882812 9.980469v26.445312c0 6.886719 3.292969 9.980469 8.882812 9.980469 5.585938 0 8.980469-3.09375 8.980469-9.980469zm0 0"/><path d="m326.539062 365.164062c0-12.074218-31.636718-9.980468-31.636718-33.332031 0-14.96875 13.074218-20.65625 25.546875-20.65625 5.289062 0 19.859375.996094 19.859375 8.78125 0 2.695313-1.796875 8.183594-6.1875 8.183594-3.589844 0-5.488282-3.792969-13.671875-3.792969-7.082031 0-9.976563 2.894532-9.976563 5.988282 0 9.980468 31.632813 8.082031 31.632813 33.230468 0 14.371094-10.480469 22.15625-24.949219 22.15625-13.070312 0-24.050781-6.386718-24.050781-12.976562 0-3.390625 2.996093-8.378906 6.785156-8.378906 4.691406 0 7.683594 7.382812 16.964844 7.382812 4.59375 0 9.683593-1.796875 9.683593-6.585938zm0 0"/><path d="m371.347656 342.210938h14.96875c2.992188 0 4.691406 2.894531 4.691406 6.089843 0 2.691407-1.398437 5.886719-4.691406 5.886719h-14.96875v16.964844h26.746094c2.992188 0 4.6875 3.191406 4.6875 6.882812 0 3.195313-1.394531 6.6875-4.6875 6.6875h-35.527344c-3.394531 0-6.785156-1.597656-6.785156-4.789062v-63.371094c0-3.191406 3.390625-4.789062 6.785156-4.789062h35.527344c3.292969 0 4.6875 3.496093 4.6875 6.6875 0 3.691406-1.695312 6.882812-4.6875 6.882812h-26.746094zm0 0"/></g><path d="m24.542969 254.707031 386.425781-164.648437 71.269531 167.257812-386.425781 164.652344zm0 0" fill="#349cdd"/><path d="m148.855469 314.914062-10.367188-24.328124c-6.726562-15.789063.59375-25.851563 13.261719-31.25 12.667969-5.398438 25.089844-3.746094 31.816406 12.042968l10.367188 24.328125c6.726562 15.789063-.683594 25.890625-13.351563 31.289063-12.671875 5.398437-24.996093 3.710937-31.726562-12.082032zm20.390625-37.433593c-2.699219-6.332031-7.035156-7.851563-12.175782-5.660157-5.140624 2.191407-6.957031 6.328126-4.257812 12.664063l10.363281 24.328125c2.699219 6.332031 6.941407 7.890625 12.082031 5.699219 5.144532-2.191407 7.050782-6.367188 4.351563-12.703125zm0 0" fill="#314c8f"/><path d="m190.867188 247.765625c-.980469-2.296875.269531-5.214844 3.484374-6.582031l19.003907-8.097656c12.117187-5.164063 24.089843-3.542969 30.664062 11.882812l.195313.457031c6.570312 15.421875-.839844 25.523438-13.507813 30.921875l-9.089843 3.875 8.449218 19.828125c1.253906 2.9375-1.703125 5.933594-5.28125 7.457031-3.582031 1.527344-7.789062 1.582032-9.039062-1.355468zm17.800781 2.070313 8.253906 19.371093 9.089844-3.875c5.140625-2.191406 7.011719-6.457031 4.351562-12.699219l-.429687-1.011718c-2.660156-6.242188-7.035156-7.847656-12.175782-5.660156zm0 0" fill="#314c8f"/><path d="m273.027344 240.742188 13.773437-5.867188c2.753907-1.175781 5.449219.824219 6.699219 3.761719 1.058594 2.480469 1.023438 5.964843-2.007812 7.253906l-13.769532 5.867187 6.652344 15.609376 24.601562-10.488282c2.753907-1.171875 5.566407 1.101563 7.015626 4.5 1.25 2.9375 1.335937 6.695313-1.695313 7.988282l-32.683594 13.925781c-3.121093 1.328125-6.867187 1.191406-8.121093-1.746094l-24.839844-58.296875c-1.25-2.9375 1.242187-5.738281 4.363281-7.066406l32.683594-13.925782c3.03125-1.292968 5.683593 1.375 6.9375 4.3125 1.445312 3.394532 1.136719 7-1.617188 8.171876l-24.605469 10.484374zm0 0" fill="#314c8f"/><path d="m360.484375 245.128906-30.976563-24.332031 13.300782 31.214844c1.25 2.9375-1.703125 5.933593-5.285156 7.460937-3.578126 1.523438-7.785157 1.582032-9.039063-1.355468l-24.839844-58.296876c-1.292969-3.03125 1.703125-5.933593 5.28125-7.460937 5.144531-2.191406 7.265625-2.550781 13.609375 2.664063l26.960938 22.03125-13.300782-31.214844c-1.289062-3.03125 1.742188-5.839844 5.324219-7.367188 3.578125-1.527344 7.707031-1.765625 9 1.261719l24.878907 58.390625c1.25 2.9375-1.703126 5.933594-5.28125 7.457031-3.304688 1.40625-6.519532 2.019531-9.632813-.453125zm0 0" fill="#314c8f"/><path d="m58.554688 275.832031c-2.339844 0-4.695313-.785156-6.644532-2.390625-4.449218-3.671875-5.082031-10.257812-1.40625-14.710937l197.433594-239.253907c3.304688-4.007812 9.054688-4.976562 13.496094-2.277343l145.796875 88.800781c4.929687 3.003906 6.488281 9.429688 3.488281 14.359375-3.003906 4.929687-9.429688 6.492187-14.359375 3.488281l-138.066406-84.089844-191.671875 232.277344c-2.066406 2.503906-5.054688 3.796875-8.066406 3.796875zm0 0" fill="#0078aa"/><path d="m275.875 26.125c0 10.976562-8.898438 19.878906-19.878906 19.878906-10.976563 0-19.878906-8.902344-19.878906-19.878906 0-10.980469 8.902343-19.878906 19.878906-19.878906 10.980468 0 19.878906 8.898437 19.878906 19.878906zm0 0" fill="#ffe662"/></svg>